<svg width="29" height="29" viewBox="0 0 24 29" fill="none" xmlns="http://www.w3.org/2000/svg">
<path d="M6.58333 13.2917V8.45832C6.58333 6.85597 7.15402 5.31925 8.16984 4.18622C9.18566 3.05319 10.5634 2.41666 12 2.41666C13.4366 2.41666 14.8143 3.05319 15.8302 4.18622C16.846 5.31925 17.4167 6.85597 17.4167 8.45832V13.2917M4.41667 13.2917H19.5833C20.78 13.2917 21.75 14.3736 21.75 15.7083V24.1667C21.75 25.5013 20.78 26.5833 19.5833 26.5833H4.41667C3.22005 26.5833 2.25 25.5013 2.25 24.1667V15.7083C2.25 14.3736 3.22005 13.2917 4.41667 13.2917Z" stroke="white" stroke-width="4" stroke-linecap="round" stroke-linejoin="round"/>
</svg>
