<svg width="421" height="92" viewBox="0 0 421 92" fill="none" xmlns="http://www.w3.org/2000/svg">
    <g clip-path="url(#clip0_352_1168)">
        <path
            d="M115.198 30.9074V31.4698C115.198 33.7164 114.467 35.84 113.011 37.8376C111.552 39.838 109.057 41.3656 105.522 42.426C105.397 42.426 105.21 42.4903 104.963 42.6134C104.032 42.9268 103.023 43.2681 101.94 43.643C100.856 44.0179 99.847 44.3621 98.916 44.6726C97.7988 45.0475 96.7456 45.4224 95.7535 45.7973C95.0087 45.9848 94.2973 46.2981 93.6136 46.7346C93.0551 47.1095 92.5437 47.5935 92.0796 48.1866C91.6155 48.7826 91.3821 49.5464 91.3821 50.4808V71.9875H83.4758V15.8301C83.4758 15.1446 83.5981 14.1598 83.8482 12.8812C84.0955 11.6026 84.7625 10.338 85.8491 9.08741C86.9329 7.83959 88.5308 6.76244 90.6401 5.85596C92.7466 4.95227 95.6646 4.49902 99.3829 4.49902C103.101 4.49902 106.019 4.95227 108.128 5.85596C110.235 6.76244 111.816 7.83959 112.872 9.08741C113.925 10.338 114.578 11.6026 114.826 12.8812C115.073 14.1626 115.198 15.1446 115.198 15.8301V30.9074ZM93.4775 38.6797C94.314 38.3692 95.1977 38.0558 96.1287 37.7425C97.0596 37.4319 97.9878 37.1018 98.9188 36.7604C99.8497 36.4191 100.686 36.1197 101.431 35.8707C101.803 35.7476 102.176 35.6217 102.548 35.4958C102.921 35.3727 103.26 35.2468 103.571 35.1209C105.183 34.5614 106.205 33.7808 106.642 32.7792C107.075 31.7804 107.292 30.8767 107.292 30.0625V17.2318C107.292 16.6694 107.2 16.0595 107.014 15.4048C106.828 14.7502 106.439 14.1402 105.85 13.5779C105.26 13.0155 104.438 12.5343 103.385 12.1258C102.329 11.7201 100.903 11.5159 99.105 11.5159C97.4292 11.5159 96.0814 11.7201 95.0587 12.1258C94.0361 12.5315 93.244 13.0491 92.6882 13.6702C92.1297 14.2941 91.7712 14.9348 91.6183 15.5895C91.4627 16.2442 91.3849 16.8541 91.3849 17.4165V39.4239C91.9435 39.2365 92.641 38.9875 93.4775 38.6741V38.6797Z"
            fill="#8B3F93" />
        <path
            d="M155.941 60.7824V62.4667C155.941 63.2165 155.816 64.2153 155.569 65.4631C155.319 66.7137 154.668 67.9616 153.615 69.2094C152.559 70.46 150.978 71.5372 148.871 72.4408C146.762 73.3445 143.847 73.8006 140.126 73.8006C136.405 73.8006 133.49 73.3473 131.383 72.4408C129.274 71.5372 127.693 70.46 126.639 69.2094C125.583 67.9616 124.933 66.697 124.686 65.4156C124.438 64.137 124.313 63.1521 124.313 62.4667V26.666H132.128V60.0326H132.222V60.9699C132.222 61.4707 132.3 62.0638 132.456 62.7493C132.609 63.4375 132.951 64.0754 133.479 64.6685C134.004 65.2617 134.779 65.7597 135.805 66.1682C136.827 66.5739 138.206 66.7781 139.945 66.7781C141.685 66.7781 143.169 66.5766 144.225 66.1682C145.278 65.7625 146.087 65.2785 146.643 64.7161C147.201 64.1538 147.574 63.5438 147.76 62.8891C147.946 62.2345 148.041 61.6245 148.041 61.0622V60.0326H148.132V26.666H155.947V60.7824H155.941Z"
            fill="#8B3F93" />
        <path
            d="M180.866 23.6025C181.919 23.6025 182.834 23.5886 183.612 23.555C184.387 23.5242 185.207 23.5718 186.077 23.6949L184.309 30.5299C183.565 30.5299 182.945 30.5467 182.447 30.5775C181.95 30.611 181.364 30.625 180.68 30.625C179.007 30.625 177.659 30.8433 176.634 31.2797C175.611 31.7162 174.819 32.2338 174.263 32.8241C173.705 33.4172 173.346 34.0411 173.193 34.6958C173.038 35.3505 172.96 35.9604 172.96 36.5228V71.9821H165.054V34.9336C165.054 34.2482 165.176 33.2634 165.426 31.9848C165.673 30.7062 166.324 29.4416 167.38 28.1909C168.433 26.9431 170.014 25.866 172.123 24.9595C174.23 24.0558 177.148 23.5998 180.866 23.5998V23.6025Z"
            fill="#8B3F93" />
        <path
            d="M223.285 53.15V55.3043C223.285 57.6768 222.693 59.8311 221.515 61.7672C220.336 63.7033 218.602 65.077 216.307 65.8884C215.19 66.2633 213.917 66.6997 212.491 67.1977C211.066 67.6986 209.687 68.1798 208.353 68.6498C207.019 69.117 205.855 69.5395 204.866 69.9144C203.873 70.2893 203.254 70.5075 203.006 70.5691C202.756 70.6922 202.448 70.8657 202.075 71.0839C201.703 71.3021 201.331 71.6295 200.958 72.0659C200.586 72.5024 200.261 73.0032 199.98 73.5655C199.702 74.1279 199.56 77.7315 199.56 78.4785V90.9958H191.654V34.7461C191.715 31.5622 193.002 28.8931 195.514 26.7388C198.024 24.5845 202.009 23.5073 207.467 23.5073C210.26 23.5073 212.647 23.8039 214.631 24.397C216.615 24.9902 218.26 25.8015 219.561 26.8311C220.864 27.8607 221.809 29.0638 222.398 30.4375C222.987 31.8112 223.282 33.28 223.282 34.8384V53.15H223.285ZM215.47 36.6178C215.409 35.8092 215.24 35.0259 214.959 34.2761C214.681 33.5262 214.245 32.8716 213.658 32.3092C213.069 31.7468 212.263 31.3104 211.238 30.9998C210.215 30.6865 208.959 30.5298 207.469 30.5298C205.98 30.5298 204.635 30.7033 203.609 31.0446C202.587 31.3887 201.781 31.842 201.189 32.4043C200.6 32.9667 200.18 33.5738 199.933 34.2313C199.683 34.886 199.56 35.5574 199.56 36.2457V65.2337C199.683 64.5482 199.98 64.0474 200.444 63.7341C200.911 63.4207 201.389 63.2025 201.886 63.0794C202.879 62.7688 203.901 62.4107 204.957 62.0022C206.011 61.5966 207.003 61.2384 207.934 60.9251C209.051 60.5502 210.104 60.1753 211.096 59.8032C211.899 59.4898 212.647 59.0534 213.33 58.491C213.886 57.993 214.384 57.3523 214.817 56.5717C215.251 55.7911 215.467 54.8091 215.467 53.6228V36.6234L215.47 36.6178Z"
            fill="#8B3F93" />
        <path d="M232.836 5.24609H240.651V71.9848H232.836V5.24609Z" fill="#8B3F93" />
        <path
            d="M265.673 23.5073C269.394 23.5073 272.309 23.9606 274.418 24.8671C276.525 25.7735 278.106 26.8507 279.162 28.0985C280.215 29.3491 280.866 30.6137 281.116 31.8923C281.363 33.1737 281.488 34.1558 281.488 34.8412V39.3373C281.488 40.4004 281.285 41.5867 280.882 42.8961C280.477 44.2055 279.535 45.6127 278.045 47.1096C277.361 47.8594 276.589 48.4189 275.719 48.7938C274.849 49.1688 274.077 49.4485 273.396 49.6388C272.59 49.8878 271.751 50.0137 270.884 50.0137H263.814C262.202 50.0137 260.774 50.6068 259.534 51.7931C258.295 52.9794 257.675 54.4482 257.675 56.194V60.4075C257.675 61.9071 257.956 63.0934 258.514 63.9663C258.759 64.4028 259.039 64.7777 259.351 65.091C259.659 65.4044 260.126 65.6842 260.746 65.9332C261.243 66.185 261.877 66.4004 262.655 66.5879C263.43 66.7753 264.436 66.8676 265.676 66.8676C267.288 66.8676 268.56 66.697 269.491 66.3528C270.422 66.0115 271.073 65.7149 271.445 65.4631C272.248 64.8392 272.807 64.0922 273.118 63.2165C273.429 62.3436 273.582 61.4063 273.582 60.4075H281.491V62.6569C281.491 64.3412 281.133 65.9024 280.421 67.3405C279.707 68.7757 278.606 70.0264 277.12 71.0867C276.064 71.8365 274.607 72.4912 272.748 73.0536C270.889 73.6159 268.533 73.8985 265.678 73.8985C263.572 73.8985 261.741 73.7251 260.193 73.3837C258.642 73.0424 257.291 72.6031 256.146 72.0716C254.999 71.5428 254.054 70.9328 253.312 70.2446C252.567 69.5591 251.947 68.8709 251.453 68.1854C250.336 66.5627 249.808 64.691 249.872 62.5674V34.8468C249.872 34.097 249.994 33.101 250.244 31.8504C250.491 30.6025 251.142 29.3547 252.198 28.1041C253.251 26.8563 254.832 25.7791 256.941 24.8727C259.048 23.969 261.966 23.5129 265.684 23.5129L265.673 23.5073ZM273.579 37.1802V36.338C273.579 35.7757 273.501 35.1658 273.349 34.5111C273.193 33.8564 272.837 33.2325 272.279 32.6365C271.72 32.0434 270.931 31.5454 269.908 31.1369C268.885 30.7312 267.538 30.527 265.862 30.527C264.186 30.527 262.713 30.7312 261.629 31.1369C260.543 31.5426 259.706 32.0266 259.117 32.589C258.528 33.1513 258.142 33.7613 257.956 34.4159C257.769 35.0706 257.675 35.6498 257.675 36.1478V45.8869C257.797 45.3246 258.078 44.8741 258.514 44.53C258.945 44.1887 259.445 43.9201 260.001 43.7326C260.557 43.5452 261.118 43.4221 261.674 43.3577C262.233 43.2962 262.666 43.2626 262.977 43.2626H268.28C269.705 43.2626 270.945 42.7478 272.001 41.7182C273.054 40.6886 273.582 39.4548 273.582 38.0195V37.1746L273.579 37.1802Z"
            fill="#8B3F93" />
        <path
            d="M361.296 60.7824V62.4667C361.296 63.2165 361.173 64.2153 360.926 65.4631C360.676 66.7137 360.026 67.9616 358.972 69.2094C357.916 70.46 356.335 71.5372 354.226 72.4408C352.117 73.3445 349.201 73.8006 345.483 73.8006C341.765 73.8006 338.847 73.3473 336.74 72.4408C334.631 71.5372 333.047 70.46 331.994 69.2094C330.941 67.9616 330.288 66.697 330.04 65.4156C329.793 64.137 329.671 63.1521 329.671 62.4667V26.666H337.485V60.0326H337.58V60.9699C337.58 61.4707 337.655 62.0638 337.81 62.7493C337.963 63.4375 338.308 64.0754 338.833 64.6685C339.361 65.2617 340.136 65.7597 341.159 66.1682C342.182 66.5739 343.56 66.7781 345.297 66.7781C347.034 66.7781 348.521 66.5766 349.577 66.1682C350.63 65.7625 351.436 65.2785 351.994 64.7161C352.553 64.1538 352.925 63.5438 353.112 62.8891C353.298 62.2345 353.392 61.6245 353.392 61.0622V60.0326H353.487V26.666H361.301V60.7824H361.296Z"
            fill="#77777A" />
        <path
            d="M387.341 23.5073C391.062 23.5073 393.977 23.9606 396.086 24.8671C398.193 25.7735 399.774 26.8507 400.83 28.0985C401.883 29.3491 402.533 30.6137 402.784 31.8923C403.031 33.1737 403.156 34.1558 403.156 34.8412V39.3373C403.156 40.4004 402.97 41.6007 402.597 42.9436C402.225 44.2866 401.294 45.6743 399.807 47.1124C399.062 47.8622 398.273 48.4217 397.437 48.7966C396.6 49.1715 395.839 49.4513 395.158 49.6416C394.349 49.8906 393.513 50.0165 392.646 50.0165H385.481C383.87 50.0165 382.441 50.5788 381.202 51.7036C379.962 52.8255 379.343 54.3251 379.343 56.1996V56.3871C379.343 57.0753 379.484 57.6517 379.762 58.1189C380.043 58.5861 380.382 58.9638 380.785 59.2436C381.188 59.5234 381.591 59.7444 381.994 59.8983C382.397 60.055 382.691 60.1949 382.878 60.3208C383.125 60.3851 383.745 60.5866 384.737 60.9307C385.729 61.2748 386.876 61.6805 388.18 62.1477C389.48 62.615 390.859 63.1018 392.318 63.5998C393.774 64.1006 395.063 64.5371 396.178 64.912C398.409 65.7233 400.13 67.097 401.338 69.0331C402.547 70.9692 403.153 73.1207 403.153 75.496V79.897C403.153 81.0217 402.95 82.2527 402.547 83.5957C402.142 84.9358 401.352 86.1725 400.177 87.2944C398.999 88.4191 397.384 89.3535 395.339 90.1034C393.293 90.8532 390.625 91.2281 387.338 91.2281C384.05 91.2281 381.385 90.8532 379.337 90.1034C377.292 89.3535 375.677 88.4163 374.502 87.2944C373.323 86.1725 372.534 84.9358 372.131 83.5957C371.728 82.2527 371.525 81.0189 371.525 79.897V34.8412C371.525 34.1558 371.648 33.1709 371.898 31.8923C372.145 30.6137 372.795 29.3491 373.851 28.0985C374.905 26.8507 376.486 25.7735 378.595 24.8671C380.702 23.9634 383.62 23.5073 387.338 23.5073H387.341ZM395.247 36.4304C395.247 35.868 395.169 35.2581 395.016 34.6034C394.861 33.9487 394.519 33.308 393.994 32.6841C393.466 32.0602 392.693 31.5454 391.67 31.1397C390.648 30.734 389.266 30.5298 387.53 30.5298C385.793 30.5298 384.381 30.734 383.297 31.1397C382.211 31.5454 381.374 32.0294 380.785 32.5918C380.196 33.1541 379.809 33.7641 379.623 34.4187C379.437 35.0734 379.343 35.6834 379.343 36.2457V45.9848C379.465 45.4225 379.746 44.972 380.179 44.6279C380.613 44.2866 381.124 44.018 381.713 43.8305C382.302 43.6431 382.878 43.52 383.433 43.4556C383.992 43.3941 384.395 43.3605 384.642 43.3605H390.039C391.465 43.3605 392.69 42.8457 393.713 41.8161C394.736 40.7865 395.247 39.5219 395.247 38.0251V36.4332V36.4304ZM381.666 67.7098C381.232 67.5867 380.765 67.3684 380.271 67.0551C379.773 66.7417 379.465 66.2745 379.34 65.6506V77.1691C379.34 79.4186 379.898 81.1504 381.016 82.3674C382.133 83.5845 384.239 84.1944 387.341 84.1944C390.442 84.1944 392.457 83.6153 393.574 82.4626C394.691 81.3071 395.247 79.5445 395.247 77.1719C395.247 75.9857 395.03 75.0036 394.597 74.223C394.163 73.4425 393.666 72.8018 393.11 72.3038C392.423 71.7414 391.681 71.3049 390.875 70.9944C389.883 70.6195 388.83 70.2446 387.713 69.8697C386.782 69.5563 385.79 69.201 384.737 68.7925C383.681 68.3868 382.658 68.0287 381.666 67.7154V67.7098Z"
            fill="#77777A" />
        <path
            d="M403.156 15.6455V15.5951C403.156 10.6906 407.105 6.56104 412.077 6.56104C417.048 6.56104 421 10.6402 421 15.5448V15.5979C421 20.5025 417.051 24.632 412.077 24.632C407.102 24.632 403.156 20.5528 403.156 15.6483V15.6455ZM419.975 15.5951V15.542C419.975 11.155 416.59 7.54027 412.077 7.54027C407.564 7.54027 404.179 11.2054 404.179 15.5951V15.6455C404.179 20.0324 407.564 23.6472 412.077 23.6472C416.59 23.6472 419.975 19.9821 419.975 15.5951ZM408.592 10.8445H412.694C414.695 10.8445 416.181 11.8265 416.181 13.7346C416.181 15.2314 415.309 16.1603 414.08 16.5212L416.49 19.9793H414.386L412.232 16.829H410.334V19.9793H408.592V10.8417V10.8445ZM412.541 15.3881C413.719 15.3881 414.386 14.7698 414.386 13.8913C414.386 12.9092 413.719 12.3944 412.541 12.3944H410.337V15.3881H412.541Z"
            fill="#77777A" />
        <path
            d="M319.772 33.9851C319.372 35.5323 318.374 36.9564 316.776 38.2574C318.374 39.6199 319.372 41.0747 319.772 42.6219C320.169 44.1691 320.372 45.3778 320.372 46.2423V61.3784C320.372 62.5535 320.155 63.7621 319.725 64.9987C319.294 66.2382 318.649 67.3657 317.788 68.3869C316.926 69.4081 315.837 70.2446 314.514 70.8937C313.191 71.5456 311.641 71.8701 309.856 71.8701H289.014V4.55225H309.856C311.641 4.55225 313.191 4.87679 314.514 5.52868C315.834 6.17777 316.926 7.01151 317.788 8.03551C318.649 9.05671 319.294 10.187 319.725 11.4236C320.155 12.6631 320.372 13.8689 320.372 15.044V30.3648C320.372 31.2321 320.172 32.4379 319.772 33.9851ZM296.762 34.5419H306.169C307.522 34.4188 308.614 34.1558 309.445 33.7529C310.276 33.3528 310.918 32.8716 311.382 32.3148C311.843 31.7581 312.149 31.1873 312.302 30.597C312.455 30.0094 312.535 29.4974 312.535 29.0666V16.622C312.535 15.0748 312.074 13.7598 311.151 12.6771C310.229 11.5971 308.967 11.0515 307.369 11.0515H296.765V34.5419H296.762ZM311.01 63.8824C311.899 62.892 312.408 61.6861 312.533 60.2621V47.5433C312.533 47.048 312.441 46.4745 312.255 45.8254C312.069 45.1735 311.702 44.558 311.149 43.9677C310.596 43.3801 309.795 42.8877 308.75 42.482C307.703 42.0819 306.355 41.8805 304.693 41.8805H296.765V65.3708H307.369C308.906 65.3708 310.12 64.8756 311.013 63.8852L311.01 63.8824Z"
            fill="#77777A" />
        <path
            d="M25.5169 44.516V84.3902C20.1117 83.0305 6.95866 74.6427 1.97034 59.6297C0.736465 55.9282 0.00280762 51.8266 0.00280762 47.3222C0.00280762 46.3793 0.0389347 45.4421 0.111189 44.5132C0.533598 38.663 2.2538 33.1849 4.72434 28.4034C6.07494 28.0369 7.49223 27.8467 8.95955 27.8467C15.7931 27.8467 25.5196 35.3056 25.5196 44.5132L25.5169 44.516Z"
            fill="#8B3F93" />
        <path
            d="M28.2296 44.516V84.3902C33.6348 83.0305 46.7878 74.6427 51.7761 59.6297C53.01 55.9282 53.7436 51.8266 53.7436 47.3222C53.7436 46.3793 53.7075 45.4421 53.6353 44.5132C53.2129 38.663 51.4926 33.1849 49.0221 28.4034C47.6715 28.0369 46.2542 27.8467 44.7869 27.8467C37.9533 27.8467 28.2268 35.3056 28.2268 44.5132L28.2296 44.516Z"
            fill="#8B3F93" />
        <path
            d="M46.9013 24.7494C46.2038 24.6683 45.4924 24.6319 44.7726 24.6319C40.6097 24.6319 36.7468 25.9273 33.5593 28.1488C33.1675 28.4202 32.7812 28.7055 32.4116 29.0105C30.8137 30.0485 28.91 30.4542 26.8703 30.4542C24.8305 30.4542 22.9546 30.0653 21.365 29.0329C20.9732 28.7027 20.5647 28.4034 20.1451 28.118C16.9714 25.9161 13.1225 24.6291 8.97345 24.6291C8.25368 24.6291 7.54226 24.6655 6.84473 24.7467C12.0748 16.5995 19.3586 11.0878 25.214 10.1813C25.2723 10.1729 25.3223 10.1673 25.3724 10.1589C25.7059 10.1142 26.0254 10.0778 26.345 10.0638C26.5201 10.0554 26.6924 10.0498 26.8675 10.0498C27.0426 10.0498 27.2148 10.0582 27.3899 10.0638C27.7095 10.0778 28.0291 10.1142 28.3626 10.1589C28.4126 10.1673 28.4654 10.1729 28.5238 10.1813C34.3791 11.0878 41.6712 16.6023 46.9013 24.7467V24.7494Z"
            fill="#8B3F93" />
        <path
            d="M16.7634 9.77831C16.7634 9.77831 27.3459 1.5304 37.2197 10.0525C37.2197 10.0525 34.2739 0 26.9485 0C20.2205 0 16.7634 9.77831 16.7634 9.77831Z"
            fill="#8B3F93" />
    </g>
    <defs>
        <clipPath id="clip0_352_1168">
            <rect width="421" height="91.2167" fill="white" />
        </clipPath>
    </defs>
</svg> 